<svg width="3156" height="869" xmlns="http://www.w3.org/2000/svg" xmlns:xlink="http://www.w3.org/1999/xlink" xml:space="preserve" overflow="hidden"><g transform="translate(-370 -675)"><path d="M511.5 1238.5 3341.43 1238.5" stroke="#000000" stroke-width="6.875" stroke-miterlimit="8" fill="none" fill-rule="evenodd"/><rect x="787.5" y="1178.5" width="252" height="115" stroke="#042433" stroke-width="6.875" stroke-miterlimit="8" fill="#156082"/><text font-family="Aptos,Aptos_MSFontService,sans-serif" font-weight="400" font-size="83" transform="matrix(1 0 0 1 743.09 1073)">Promoter</text><text font-family="Aptos,Aptos_MSFontService,sans-serif" font-weight="400" font-size="83" transform="matrix(1 0 0 1 1098.7 1470)">5’ UTR</text><rect x="1039.5" y="1178.5" width="333" height="115" stroke="#042433" stroke-width="6.875" stroke-miterlimit="8" fill="#D86ECC"/><rect x="1372.5" y="1178.5" width="27.9999" height="115" stroke="#042433" stroke-width="6.875" stroke-miterlimit="8" fill="#4EA72E"/><text font-family="Aptos,Aptos_MSFontService,sans-serif" font-weight="400" font-size="83" transform="matrix(1 0 0 1 1170.51 1075)">Start Codon</text><rect x="1400.5" y="1178.5" width="212" height="115" stroke="#042433" stroke-width="6.875" stroke-miterlimit="8" fill="#E97132"/><rect x="1612.5" y="1178.5" width="333" height="115" stroke="#042433" stroke-width="6.875" stroke-miterlimit="8" fill="#A6A6A6"/><text font-family="Aptos,Aptos_MSFontService,sans-serif" font-weight="400" font-size="83" transform="matrix(1 0 0 1 1675.04 1076)">Intron</text><text font-family="Aptos,Aptos_MSFontService,sans-serif" font-weight="400" font-size="83" transform="matrix(1 0 0 1 1415.33 1471)">Exon</text><rect x="1945.5" y="1178.5" width="280" height="115" stroke="#042433" stroke-width="6.875" stroke-miterlimit="8" fill="#E97132"/><rect x="2225.5" y="1178.5" width="252" height="115" stroke="#042433" stroke-width="6.875" stroke-miterlimit="8" fill="#A6A6A6"/><text font-family="Aptos,Aptos_MSFontService,sans-serif" font-weight="400" font-size="83" transform="matrix(1 0 0 1 2009.07 1470)">Exon</text><text font-family="Aptos,Aptos_MSFontService,sans-serif" font-weight="400" font-size="83" transform="matrix(1 0 0 1 2247.24 1073)">Intron</text><rect x="2477.5" y="1178.5" width="280" height="115" stroke="#042433" stroke-width="6.875" stroke-miterlimit="8" fill="#E97132"/><text font-family="Aptos,Aptos_MSFontService,sans-serif" font-weight="400" font-size="83" transform="matrix(1 0 0 1 2541.77 1470)">Exon</text><rect x="2757.5" y="1178.5" width="26.9998" height="115" stroke="#042433" stroke-width="6.875" stroke-miterlimit="8" fill="#C00000"/><text font-family="Aptos,Aptos_MSFontService,sans-serif" font-weight="400" font-size="83" transform="matrix(1 0 0 1 2555.33 1073)">Stop Codon</text><rect x="2784.5" y="1178.5" width="306" height="115" stroke="#042433" stroke-width="6.875" stroke-miterlimit="8" fill="#D86ECC"/><path d="M913.5 1084.5 913.5 1164.05" stroke="#000000" stroke-width="6.875" stroke-miterlimit="8" fill="none" fill-rule="evenodd"/><path d="M1213.5 1313.5 1213.5 1393.05" stroke="#000000" stroke-width="6.875" stroke-miterlimit="8" fill="none" fill-rule="evenodd"/><text font-family="Aptos,Aptos_MSFontService,sans-serif" font-weight="400" font-size="83" transform="matrix(1 0 0 1 2817.38 1470)">3’ UTR</text><path d="M1387.5 1084.5 1387.5 1164.05" stroke="#000000" stroke-width="6.875" stroke-miterlimit="8" fill="none" fill-rule="evenodd"/><path d="M1505.5 1313.5 1505.5 1393.05" stroke="#000000" stroke-width="6.875" stroke-miterlimit="8" fill="none" fill-rule="evenodd"/><path d="M1779.5 1085.5 1779.5 1165.05" stroke="#000000" stroke-width="6.875" stroke-miterlimit="8" fill="none" fill-rule="evenodd"/><path d="M2094.5 1313.5 2094.5 1393.05" stroke="#000000" stroke-width="6.875" stroke-miterlimit="8" fill="none" fill-rule="evenodd"/><path d="M2351.5 1084.5 2351.5 1164.05" stroke="#000000" stroke-width="6.875" stroke-miterlimit="8" fill="none" fill-rule="evenodd"/><path d="M2617.5 1313.5 2617.5 1393.05" stroke="#000000" stroke-width="6.875" stroke-miterlimit="8" fill="none" fill-rule="evenodd"/><path d="M2771.5 1088.5 2771.5 1168.05" stroke="#000000" stroke-width="6.875" stroke-miterlimit="8" fill="none" fill-rule="evenodd"/><path d="M2937.5 1313.5 2937.5 1393.05" stroke="#000000" stroke-width="6.875" stroke-miterlimit="8" fill="none" fill-rule="evenodd"/><text font-family="Aptos,Aptos_MSFontService,sans-serif" font-weight="400" font-size="83" transform="matrix(1 0 0 1 1510.6 776)">Eukaryotic Gene Model</text><path d="M0.000456884-3.4375 1389.03-3.25288 1389.03 3.62212-0.000456884 3.4375ZM1384.45-13.566 1411.94 0.187664 1384.44 13.934Z" transform="matrix(1 0 0 -1 1372.5 1236.69)"/><text font-family="Aptos,Aptos_MSFontService,sans-serif" font-weight="400" font-size="83" transform="matrix(1 0 0 1 419.906 1271)">5’</text><text font-family="Aptos,Aptos_MSFontService,sans-serif" font-weight="400" font-size="83" transform="matrix(1 0 0 1 3380.57 1271)">3’</text><text font-family="Aptos,Aptos_MSFontService,sans-serif" font-weight="400" font-size="83" transform="matrix(1 0 0 1 1705.4 944)">Transcribed Sequence</text><path d="M2094.5 974.5 2094.5 1236.39" stroke="#000000" stroke-width="6.875" stroke-miterlimit="8" fill="none" fill-rule="evenodd"/></g></svg>